<?xml version="1.0" encoding="utf-8"?>
<!-- Generator: Adobe Illustrator 25.2.3, SVG Export Plug-In . SVG Version: 6.00 Build 0)  -->
<svg version="1.1" id="图层_1" xmlns="http://www.w3.org/2000/svg" xmlns:xlink="http://www.w3.org/1999/xlink" x="0px" y="0px"
	 viewBox="0 0 1920 1080" style="enable-background:new 0 0 1920 1080;" xml:space="preserve">
<g>
	<g>
		<path d="M321.9,590.2c-10.2-6-18.1-14.3-23.7-24.9c-5.7-10.6-8.6-22.8-8.9-36.4c0.3-13.7,3.2-25.8,8.8-36.3
			c5.6-10.7,13.6-19,24-25c10.4-6,22.4-9,35.9-9c13.7,0,25.7,3,36.1,9c10.2,6,18.1,14.3,23.7,25c5.7,10.7,8.6,22.8,8.9,36.3
			c-0.3,13.5-3.2,25.6-8.8,36.1c-5.7,10.8-13.8,19.2-24.1,25.2c-10.4,6-22.3,9-35.8,9C344.4,599.2,332.3,596.2,321.9,590.2z
			 M385,575.2c7.5-4.6,13.4-10.8,17.5-18.8s6.2-17.2,6.2-27.4c0-10.2-2-19.3-6.1-27.3c-4.2-8.2-10.1-14.6-17.8-19.1
			c-7.7-4.6-16.6-6.8-26.8-6.8c-10.5,0-19.5,2.3-27,7c-7.6,4.6-13.4,10.8-17.5,18.8s-6.2,17.2-6.2,27.4c0,10.2,2,19.3,6.1,27.3
			c4.2,8.3,10.1,14.7,17.7,19.2s16.6,6.7,26.9,6.7C368.6,582.2,377.6,579.8,385,575.2z"/>
		<path d="M455.2,640.4c-1.8-1.8-2.6-4-2.6-6.4V505.2c0-2.5,0.9-4.6,2.6-6.3s3.9-2.6,6.3-2.6c2.5,0,4.6,0.9,6.4,2.6
			c1.8,1.8,2.7,3.9,2.7,6.3v4.7c9.4-9.8,20.4-14.6,33.2-14.6c8.5,0,16.1,2,23,6.1c7.5,4.2,13.5,10.3,17.9,18.4
			c4.4,8.1,6.5,17.3,6.5,27.5c0,10.7-2.2,19.9-6.6,27.5c-4.4,7.8-10.3,13.8-17.5,18.1s-15,6.3-23.3,6.3c-12.8,0-23.8-4.9-33.2-14.6
			v49.4c0,2.6-0.9,4.8-2.6,6.5s-3.9,2.6-6.5,2.6C459.1,643.1,457,642.2,455.2,640.4z M524.7,572.9c5.7-6.2,8.5-14.7,8.5-25.7
			s-2.8-19.5-8.5-25.7c-5.7-6.2-13.4-9.3-23.3-9.3c-5.7,0-11.2,1.3-16.5,3.9c-5.3,2.6-10,6.1-14.2,10.5v41
			c4.2,4.4,8.9,7.9,14.2,10.5c5.3,2.6,10.8,3.9,16.5,3.9C511.3,582.2,519.1,579.1,524.7,572.9z"/>
		<path d="M583.1,585.5c-8.9-9.1-13.4-21.9-13.4-38.3c0-8.9,1.7-17.4,5.1-25.6c3.5-8.2,8.9-14.6,16-19.3c7.2-4.7,15.8-7,25.8-7
			c9.6,0,18,2.2,25.2,6.6c6.8,4.4,12,10.4,15.8,17.9c3.8,7.5,5.7,15.8,5.7,24.9c0,2.5-0.8,4.6-2.5,6.3c-1.7,1.8-3.9,2.6-6.6,2.6h-66
			c1.2,9.2,4.7,16.3,10.4,21.2c5.8,4.9,13.6,7.3,23.5,7.3c5.2,0,9.9-0.5,14-1.5s8.2-2.5,12.4-4.6c0.9-0.5,2.1-0.8,3.5-0.8
			c2.1,0,3.9,0.8,5.6,2.2c1.6,1.5,2.4,3.4,2.4,5.6c0,3-1.8,5.5-5.3,7.4c-5.5,3-10.7,5.2-15.6,6.5c-5,1.4-11.1,2.1-18.6,2.1
			C604.5,599.2,592.1,594.6,583.1,585.5z M645.2,536.3c-0.5-5.2-2.1-9.6-4.7-13.1c-2.9-4.2-6.4-7.3-10.6-9.4
			c-4.2-2.1-8.6-3.1-13.2-3.1c-4.2,0-8.5,1-13.1,2.9c-4.6,2.2-8.2,5.5-10.8,9.9c-2.7,4.4-4.2,9.5-4.6,15.3h54.7
			C644.5,538.8,645.3,538,645.2,536.3z"/>
		<path d="M689,595.6c-1.8-1.8-2.6-3.9-2.6-6.3v-83.8c0-2.5,0.9-4.6,2.6-6.4c1.8-1.8,3.9-2.7,6.3-2.7c2.5,0,4.6,0.9,6.4,2.7
			c1.8,1.8,2.7,4,2.7,6.4v7.4c5.3-5.7,10.9-10.1,16.6-13.1c5.7-3,12.2-4.5,19.5-4.5c7.2,0,13.5,1.7,18.9,5.1c5.2,3.4,9.2,8,12,13.9
			c2.8,5.9,4.2,12.4,4.2,19.5v55.5c0,2.5-0.9,4.6-2.7,6.3c-1.8,1.8-4,2.6-6.4,2.6c-2.5,0-4.6-0.9-6.3-2.6s-2.6-3.9-2.6-6.3v-53.5
			c0-15.8-7.1-23.6-21.3-23.6c-6.2,0-11.9,1.6-16.9,4.7c-5,3.1-10,7.7-14.9,13.9v58.6c0,2.5-0.9,4.6-2.7,6.3c-1.8,1.8-4,2.6-6.4,2.6
			C692.9,598.2,690.8,597.3,689,595.6z"/>
		<path d="M808.7,595.6c-1.8-1.8-2.6-3.9-2.6-6.3V468.7c0-2.5,0.9-4.6,2.6-6.4c1.8-1.8,3.9-2.7,6.3-2.7c2.5,0,4.6,0.9,6.4,2.7
			c1.8,1.8,2.7,4,2.7,6.4v51.8h73.6v-51.8c0-2.5,0.9-4.6,2.6-6.4c1.8-1.8,3.9-2.7,6.3-2.7c2.5,0,4.6,0.9,6.4,2.7
			c1.8,1.8,2.7,4,2.7,6.4v120.5c0,2.5-0.9,4.6-2.7,6.3c-1.8,1.8-4,2.6-6.4,2.6c-2.5,0-4.6-0.9-6.3-2.6s-2.6-3.9-2.6-6.3v-51.8h-73.6
			v51.8c0,2.5-0.9,4.6-2.7,6.3c-1.8,1.8-4,2.6-6.4,2.6C812.6,598.2,810.5,597.3,808.7,595.6z"/>
		<path d="M959.8,595.7c-5.1-2.3-9.1-5.8-11.9-10.4c-2.9-4.6-4.3-9.8-4.3-15.6c0-10.2,3.9-18,11.8-23.5c7.9-5.5,19-8.3,33.3-8.3
			h23.4v-1.4c0-8.3-2.1-14.4-6.2-18.3c-4.1-3.8-10.7-5.8-19.8-5.8c-4.7,0-8.9,0.4-12.7,1.1c-3.8,0.7-8.2,1.9-13.3,3.6l-2.5,0.4
			c-2,0-3.7-0.7-5.2-2.2c-1.5-1.5-2.2-3.3-2.2-5.4c0-3.6,1.8-6.2,5.3-7.6c10.9-4.7,22.2-7,33.8-7c9,0,16.7,1.8,23,5.5
			c6,3.5,10.5,8.2,13.5,14c3,5.8,4.5,12.2,4.5,19.2v55.3c0,2.5-0.9,4.6-2.7,6.3c-1.8,1.8-4,2.6-6.4,2.6c-2.5,0-4.6-0.9-6.3-2.6
			s-2.6-3.9-2.6-6.3v-4.7c-9.4,9.8-21.6,14.6-36.5,14.6C970,599.2,964.8,598,959.8,595.7z M998.6,579.2c5.3-2.7,9.8-6.2,13.6-10.4
			v-16.2h-21.1c-19.5,0-29.3,5.1-29.3,15.2c0,10.3,6.8,15.4,20.5,15.4C987.9,583.2,993.3,581.8,998.6,579.2z"/>
		<path d="M1062.4,595.6c-1.8-1.8-2.6-3.9-2.6-6.3v-83.8c0-2.5,0.9-4.6,2.6-6.4c1.8-1.8,3.9-2.7,6.3-2.7c2.5,0,4.6,0.9,6.4,2.7
			c1.8,1.8,2.7,4,2.7,6.4v7.8c9-12,19.1-18,30.5-18h1c2.5,0,4.6,0.9,6.2,2.6c1.7,1.8,2.5,3.9,2.5,6.3c0,2.5-0.9,4.5-2.6,6.2
			c-1.8,1.6-3.9,2.4-6.5,2.4h-1c-6.1,0-11.8,1.5-16.9,4.4c-5.1,2.9-9.5,7.1-13.2,12.6v59.4c0,2.5-0.9,4.6-2.7,6.3
			c-1.8,1.8-4,2.6-6.4,2.6C1066.3,598.2,1064.2,597.3,1062.4,595.6z"/>
		<path d="M1280.8,514.6c2.4,5.7,3.6,11.8,3.6,18.4v56.2c0,2.5-0.9,4.6-2.7,6.3c-1.8,1.8-4,2.6-6.4,2.6c-2.5,0-4.6-0.9-6.3-2.6
			s-2.6-3.9-2.6-6.3v-52.7c0-8.7-1.5-15-4.6-18.8c-3.1-3.8-8.1-5.7-15.1-5.7c-6.2,0-11.5,1.6-15.8,4.8c-4.3,3.2-8.3,7.8-12.1,13.8
			v58.6c0,2.5-0.9,4.6-2.7,6.3c-1.8,1.8-4,2.6-6.4,2.6c-2.5,0-4.6-0.9-6.3-2.6s-2.6-3.9-2.6-6.3v-52.7c0-8.7-1.5-15-4.6-18.8
			c-3.1-3.8-8.1-5.7-15.1-5.7c-6.2,0-11.5,1.6-15.8,4.8c-4.3,3.2-8.3,7.8-12.1,13.8v58.6c0,2.5-0.9,4.6-2.7,6.3
			c-1.8,1.8-4,2.6-6.4,2.6c-2.5,0-4.6-0.9-6.3-2.6s-2.6-3.9-2.6-6.3v-83.8c0-2.5,0.9-4.6,2.6-6.4c1.8-1.8,3.9-2.7,6.3-2.7
			c2.5,0,4.6,0.9,6.4,2.7c1.8,1.8,2.7,4,2.7,6.4v7.2c4-5.5,8.7-9.7,13.9-12.8c5.2-3.1,11.6-4.6,19.1-4.6c7,0,13.2,1.9,18.5,5.6
			s9.1,8.5,11.4,14.4c8.1-13.3,20-19.9,35.9-19.9c7.5,0,13.7,1.8,18.6,5.5C1274.8,504.3,1278.4,508.9,1280.8,514.6z"/>
		<path d="M1331.7,592.7c-7.6-4.4-13.4-10.6-17.6-18.6c-4.2-7.9-6.2-16.9-6.2-27c0-10.2,2.1-19.2,6.2-27.1
			c4.2-7.9,10.1-14.1,17.7-18.4s16.4-6.4,26.3-6.4c9.9,0,18.6,2.1,26.2,6.4c7.7,4.4,13.6,10.6,17.8,18.5c4.2,7.9,6.2,16.9,6.2,27.1
			s-2.1,19.1-6.2,27c-4.3,8.1-10.3,14.3-17.9,18.6s-16.3,6.4-26.1,6.4C1348,599.2,1339.2,597,1331.7,592.7z M1373.5,578.9
			c5.1-2.6,9.1-6.6,12.1-12c3-5.4,4.5-12,4.5-19.8c0-8.2-1.6-14.8-4.7-19.9c-2.9-4.9-6.7-8.7-11.4-11.3c-4.8-2.6-10.1-3.9-15.9-3.9
			c-5.3,0-10.5,1.2-15.4,3.5c-5.1,2.6-9.1,6.6-12.1,11.9c-3,5.3-4.5,11.9-4.5,19.7c0,8.3,1.6,15,4.7,20.1c2.9,5.1,6.7,8.9,11.4,11.5
			c4.8,2.6,10.1,3.9,15.9,3.9C1363.4,582.6,1368.5,581.3,1373.5,578.9z"/>
		<path d="M1435.3,595.6c-1.8-1.8-2.6-3.9-2.6-6.3v-83.8c0-2.5,0.9-4.6,2.6-6.4c1.8-1.8,3.9-2.7,6.3-2.7c2.5,0,4.6,0.9,6.4,2.7
			c1.8,1.8,2.7,4,2.7,6.4v7.4c5.3-5.7,10.9-10.1,16.6-13.1c5.7-3,12.2-4.5,19.5-4.5c7.2,0,13.5,1.7,18.9,5.1c5.2,3.4,9.2,8,12,13.9
			c2.8,5.9,4.2,12.4,4.2,19.5v55.5c0,2.5-0.9,4.6-2.7,6.3c-1.8,1.8-4,2.6-6.4,2.6c-2.5,0-4.6-0.9-6.3-2.6s-2.6-3.9-2.6-6.3v-53.5
			c0-15.8-7.1-23.6-21.3-23.6c-6.2,0-11.9,1.6-16.9,4.7c-5,3.1-10,7.7-14.9,13.9v58.6c0,2.5-0.9,4.6-2.7,6.3c-1.8,1.8-4,2.6-6.4,2.6
			C1439.2,598.2,1437.1,597.3,1435.3,595.6z"/>
		<path d="M1568,640.5c-1.7-1.8-2.5-3.8-2.5-6.2c0-1,0.2-2.1,0.6-3.1l12.7-32.6l-36.7-89.5c-0.5-1.3-0.8-2.5-0.8-3.7
			c0-2.5,0.9-4.6,2.6-6.4c1.8-1.8,3.9-2.7,6.3-2.7c1.8,0,3.5,0.5,5.1,1.6c1.6,1,2.7,2.4,3.3,4.1l29.9,74l30.5-73.6
			c1.8-4,4.6-6.1,8.4-6.1c2.5,0,4.6,0.9,6.3,2.7c1.8,1.8,2.6,4,2.6,6.4c0,1.2-0.2,2.3-0.6,3.3l-53.3,128.1c-1.8,4.2-4.6,6.2-8.4,6.2
			C1571.7,643.1,1569.7,642.2,1568,640.5z"/>
	</g>
</g>
</svg>
